# xmcd
#
# Track frame offsets:
#	150
#	17479
#	32134
#	59276
#	85970
#	105924
#	132043
#	148214
#	163157
#	181784
#	196841
#	209735
#	215449
#
# Disc length: 3049 seconds
#
# Revision: 0
# Processed by: cddbd v1.5.2PL0 Copyright (c) Steve Scherf et al.
# Submitted via: audiograbber 1.83.01
#
DISCID=b40be70d
DTITLE=Various Artist - Simply The Best Comedy Collection - Australia
DYEAR=2006
DGENRE=Comedy
TTITLE0=Rolf Harris - Jake The Peg
TTITLE1=Dame Edna - Edna From The Block
TTITLE2=Tug Dumbly - Share Accom.
TTITLE3=Martin and Molloy - The Most Powerful Man In Australia
TTITLE4=Austen Tayshus - Australiana
TTITLE5=Barry Humphries - Les Patterson Cultural Attaché
TTITLE6=Dave Hughes - Bread n' Jam
TTITLE7=Elliot Goblet - Things I Like
TTITLE8=Steady Eddy - Airports
TTITLE9=Guido Hatzis - Masseuse
TTITLE10=Lee Perry and Gary Eck - Morning With Russ
TTITLE11=D-Generation - The Slag Club
TTITLE12=Kevin Bloody Wilson - It Was Over (Kev's Lament)
EXTD=
EXTT0=
EXTT1=
EXTT2=
EXTT3=
EXTT4=
EXTT5=
EXTT6=
EXTT7=
EXTT8=
EXTT9=
EXTT10=
EXTT11=
EXTT12=
PLAYORDER=
